<svg width="263" height="387" xmlns="http://www.w3.org/2000/svg" xmlns:xlink="http://www.w3.org/1999/xlink"><defs><path id="a" d="M0 .82h237.723v228.338H0z"/></defs><g fill="none" fill-rule="evenodd"><path d="M120.358 381.945c-11.546 0-15.027-5.504-16.074-8.786-1.564-4.9.23-10.48 5.09-16.208-7.241-1.9-16.176-5.79-20.003-13.68a18.15 18.15 0 0 1-1.787-6.66c-12.55 10.117-31.406 23.537-43.13 23.537-5.794 0-8.871-2.944-10.433-5.415-4.557-7.21-2.766-20.41 5.85-42.438-23.919-6.087-34.775-13.41-35.01-23.459-.22-9.359 9.285-17.887 29.911-26.835a218.191 218.191 0 0 1 12.24-4.848 17.403 17.403 0 0 1-4.33-5.113c-4.61-8.189-2.304-19.025.343-26.497l-.48.005c-.262 0-.52-.003-.777-.008l-.55-.015a35.54 35.54 0 0 1-.776-.04l-.532-.035c-.27-.02-.53-.048-.792-.075 0 0-.371-.037-.49-.052a26.886 26.886 0 0 1-.858-.122l-.367-.054c-.43-.073-.83-.149-1.22-.235a8.206 8.206 0 0 1-.24-.056 25.715 25.715 0 0 1-.922-.229c-.1-.026-.438-.128-.438-.128a22.4 22.4 0 0 1-.675-.205c-.155-.052-.492-.172-.492-.172a22.281 22.281 0 0 1-.625-.232 18.193 18.193 0 0 1-.475-.197 15.573 15.573 0 0 1-1.073-.496 16.437 16.437 0 0 1-1.495-.844 13.865 13.865 0 0 1-.934-.638c-.144-.106-.299-.22-.448-.34-.139-.11-.246-.2-.352-.292a14.81 14.81 0 0 1-.53-.464 11.434 11.434 0 0 1-.292-.284l-.096-.095c-.14-.138-.279-.28-.41-.422-.092-.1-.163-.181-.232-.265a13.997 13.997 0 0 1-1.704-2.422 13.307 13.307 0 0 1-.389-.773 6.544 6.544 0 0 1-.123-.26c-.112-.25-.214-.508-.31-.77a10.09 10.09 0 0 1-.105-.28 14.44 14.44 0 0 1-.518-1.915l-.056-.305a14.133 14.133 0 0 1-.123-.843l-.025-.24c-.03-.316-.052-.616-.064-.92l-.005-.226a15.47 15.47 0 0 1 .004-.946l.009-.172c.485-11.564 13.14-24.218 34.718-34.642l.253-.122c4.302-2.068 8.938-4.045 13.792-5.884 8.96-3.394 17.577-5.115 25.613-5.115 22.556 0 35.649 13.423 41.32 21.166 13.626.478 26.022 7.185 32.961 17.645 11.556-4.165 20.366-6.195 26.856-6.195 8.894 0 12.468 4.016 13.9 7.386 2.756 6.49-.007 15.63-8.696 28.765a157.777 157.777 0 0 1-6.314 8.822c3.231.527 7.032 1.255 10.894 2.232 15.214 3.85 23.187 9.485 24.373 17.225 1.654 10.785-10.115 21.388-38.046 34.147 1.502 5.616 3.36 14.969 2.764 25.338-1.065 18.512-9.564 33.177-24.576 42.406l-.262.161c-.264.164-.528.327-.8.486-20.51 12.024-38.776 18.643-51.437 18.643z" fill="#FFF"/><g transform="translate(0 157.842)"><mask id="b" fill="#fff"><use xlink:href="#a"/></mask><path d="M97.421.82c-8.603 0-17.78 1.824-27.274 5.42-4.928 1.866-9.641 3.875-14.016 5.973l-.14.051-.403.21C32.094 23.85 18.82 37.67 18.191 51.409l-.009.2a21.124 21.124 0 0 0 .292 4.302c.02.125.047.258.072.39a19.753 19.753 0 0 0 .71 2.626c.05.146.103.284.156.422l-.013-.033c.117.31.253.664.436 1.073.058.132.125.275.196.418.145.306.3.626.501.989a18.86 18.86 0 0 0 2.278 3.258 13.143 13.143 0 0 0 .953 1.02l.04.039c.154.155.298.295.447.435.196.182.395.355.596.526l.058.05a16.875 16.875 0 0 0 1.121.887 20.112 20.112 0 0 0 2.453 1.556c.216.118.435.23.656.341a21.09 21.09 0 0 0 1.328.615l.051.021c.188.08.376.16.57.236.235.093.48.181.727.27l.087.031c.176.063.352.125.534.186.252.083.52.164.787.242l.045.013.041.012c.165.05.33.099.499.145.329.089.674.174 1.023.254.126.032.247.06.371.086.454.1.925.19 1.404.27-2.39 9.765-1.758 17.985 1.89 24.463.064.115.129.228.195.34-1.9.756-3.84 1.559-5.782 2.401C10.184 109.35-.27 119.4.005 131.118c.175 7.462 4.66 13.8 13.328 18.834 5.013 2.911 11.615 5.539 20.016 7.956-7.574 20.83-8.537 33.61-3.386 41.76 3.135 4.96 8.281 7.693 14.49 7.693 12 0 27.46-10.494 38.043-18.387.783-.584 1.553-1.166 2.313-1.746.073.16.149.32.225.48 2.99 6.16 8.546 10.89 16.551 14.105-2.458 4.562-3.626 9.712-1.908 15.096 1.176 3.683 5.543 12.249 20.68 12.249 13.482 0 32.594-6.85 53.816-19.291.314-.184.62-.372.925-.561l.23-.142c16.466-10.122 25.787-26.188 26.954-46.456.503-8.742-.628-16.803-1.915-22.757 11.522-5.478 20.09-10.6 26.056-15.567 8.533-7.107 12.264-14.596 11.09-22.259-2.274-14.823-21.654-19.728-28.023-21.34a115.79 115.79 0 0 0-3.4-.806c.56-.807 1.118-1.63 1.673-2.47 9.74-14.722 12.642-25.423 9.137-33.675-1.65-3.883-6.227-10.398-18.343-10.398-6.363 0-14.615 1.74-25.09 5.3-3.458-4.317-7.794-7.97-12.83-10.766-5.928-3.295-12.584-5.288-19.45-5.849-6.842-8.596-20.837-21.3-43.766-21.3m0 10.11c22.293 0 34.307 14.235 38.826 21.149.312-.008.621-.011.933-.011 13.16 0 26.386 6.595 32.415 18.765 13.589-5.17 22.87-7.288 28.962-7.288 27.684 0-10.581 43.77-10.581 43.77s89.557 7.816.749 46.915c2.092 6.093 14.313 46.156-18.34 66.229-.325.2-.645.402-.98.599-22.13 12.972-38.807 17.989-49.048 17.989-15.046 0-16.188-10.843-.256-23.221 0 0-41.043-2.723-23.198-31.566 0 0-36.023 32.99-52.45 32.99-9.543 0-12.473-11.146 2.127-46.371-92.046-20.987 17.274-51.789 17.274-51.789-32.962-.04-12.9-37.403-12.9-37.403-.476.102-.946.194-1.41.28-.153.028-.301.05-.452.076-.309.054-.617.107-.92.154-.178.027-.352.05-.528.074-.271.038-.541.076-.807.108-.184.022-.365.041-.547.06-.252.026-.503.053-.75.075-.184.016-.364.029-.545.042-.24.017-.48.034-.716.046a38.922 38.922 0 0 1-1.222.043c-.172.002-.343.005-.513.005h-.014c-.221 0-.44-.003-.658-.008-.162-.004-.326-.006-.488-.012-.223-.009-.442-.022-.66-.035-.153-.01-.306-.018-.456-.03a23.28 23.28 0 0 1-.662-.063c-.138-.014-.277-.026-.412-.042-.242-.03-.476-.066-.71-.102-.106-.016-.215-.03-.32-.047a20.51 20.51 0 0 1-.978-.188c-.07-.015-.135-.033-.204-.048a21.442 21.442 0 0 1-.733-.182c-.119-.032-.232-.068-.348-.102-.182-.053-.365-.107-.542-.165-.128-.042-.252-.088-.377-.133a14.617 14.617 0 0 1-.466-.172c-.128-.05-.252-.103-.377-.157-.14-.06-.282-.12-.419-.184a13.834 13.834 0 0 1-1.444-.786 11.086 11.086 0 0 1-.974-.688c-.091-.073-.179-.15-.266-.224-.106-.09-.214-.181-.314-.275-.077-.07-.148-.145-.222-.218-.104-.103-.21-.205-.307-.311-.052-.056-.098-.116-.149-.173a8.713 8.713 0 0 1-1.035-1.456c-.015-.027-.032-.052-.048-.079a8.158 8.158 0 0 1-.238-.478c-.025-.053-.052-.105-.076-.158a8.797 8.797 0 0 1-.193-.48l-.068-.18a8.91 8.91 0 0 1-.153-.494c-.018-.063-.037-.126-.053-.19a9.012 9.012 0 0 1-.151-.701 9.293 9.293 0 0 1-.08-.549l-.018-.168c-.018-.195-.033-.391-.04-.59-.002-.045-.002-.09-.003-.136a10.757 10.757 0 0 1 .005-.712c.341-8.128 9.822-19.681 31.915-30.353l.003-.002c4.112-1.986 8.65-3.942 13.659-5.84 9.042-3.424 16.996-4.81 23.951-4.81" fill="#FFF" mask="url(#b)"/></g><path d="M187.596 291.391l-49.217-97.784s-17.592-37.948-64.909-20.024c-58.934 22.324-54.254 52.738-22.517 45.947 0 0-20.061 37.365 12.902 37.404 0 0-109.32 30.8-17.275 51.788-39.729 95.854 50.323 13.381 50.323 13.381C79.057 350.946 120.1 353.67 120.1 353.67c-26.774 20.8-5.34 37.262 49.304 5.232 36.708-21.518 19.038-67.615 19.038-67.615l-.847.104z" fill="#12F912"/><path d="M150.323 216.78s-9.22 52.318 37.854 75.535c89.733-39.308-.201-47.156-.201-47.156s65.831-75.293-37.653-28.38" fill="#FCD700"/><path d="M171.671 211.454c8.916 20.257-.978 44.84-22.098 54.91-21.122 10.068-45.47 1.808-54.387-18.449-8.916-20.256.98-44.84 22.1-54.908 19.12-9.115 45.469-1.809 54.385 18.447" fill="#000" opacity=".15"/><path d="M170.198 209.944c8.006 18.19-.878 40.266-19.844 49.307-18.966 9.042-40.831 1.625-48.837-16.565-8.007-18.19.878-40.266 19.843-49.307 17.171-8.185 40.832-1.625 48.838 16.565" fill="#FFF"/><path d="M218.904 252.477l-.231.152s.487.099 1.2.33c-.317-.163-.64-.324-.969-.482" fill="#000"/><path d="M136.323 344.411s-49.852-.681-32.007-29.524c0 0-81.243 80.43-41.514-15.423-92.045-20.988 13.808-45.502 13.808-45.502-32.962-.04-9.434-43.69-9.434-43.69-26.029 5.568-37.895-11.357-7.365-30.849-44.274 21.385-37.898 46.32-8.858 40.107 0 0-20.061 37.364 12.9 37.404 0 0-109.318 30.801-17.273 51.789-39.729 95.852 50.323 13.38 50.323 13.38-17.846 28.844 23.198 31.566 23.198 31.566-26.774 20.802-5.34 37.264 49.304 5.232.334-.196.655-.398.981-.599-46.262 23.517-58.923 5.424-34.063-13.89" fill="#000" opacity=".15"/><path d="M194.046 205.174c.28.922-1.133 2.207-3.155 2.872-2.023.664-3.888.456-4.168-.466-.28-.921 1.133-2.208 3.156-2.872 2.022-.665 3.888-.456 4.167.466" fill="#000" opacity=".5"/><path d="M162.944 215.147c0 8.375-6.524 15.164-14.572 15.164-8.047 0-14.571-6.79-14.571-15.164 0-8.376 6.524-15.165 14.571-15.165 8.048 0 14.572 6.79 14.572 15.165" fill="#000" opacity=".85"/><path d="M148.372 209.565c0 3.199-2.491 5.792-5.565 5.792-3.074 0-5.566-2.593-5.566-5.792s2.492-5.792 5.566-5.792 5.565 2.593 5.565 5.792M223.68 114.442c30.36-11.05 45.937-44.83 34.792-75.45-11.145-30.62-44.791-46.484-75.151-35.434-30.36 11.05-45.938 44.83-34.793 75.45 3.813 10.475 10.259 19.223 18.306 25.758l-.536 18.785c-.27 9.497 5.198 12.07 12.214 5.76L192.4 116.82a57.857 57.857 0 0 0 31.28-2.378z" fill="#FFF"/><path d="M186.25 47.697l-4.694-.66-.967 6.881 4.553.64c2.012.283 3.33-1.413 3.554-3.009.215-1.525-.504-3.58-2.446-3.852zm-12.324 16.244l2.746-19.543c.24-1.45 1.292-2.531 2.845-2.313l7.482 1.052c5.542.778 7.449 5.133 6.886 9.141-.569 4.044-3.593 7.633-9.134 6.855l-4.8-.675-.872 6.207c-.185 1.312-1.504 2.248-2.916 2.05-1.34-.189-2.417-1.497-2.237-2.774zm25.41-4.097l7.13 1.002c.036-2.056-1.2-3.243-3.036-3.5-1.835-.259-3.377.465-4.094 2.498zm9.21 6.684c.768 1.193.2 2.668-1.099 3.209-1.813.866-3.95.964-5.892.69-4.729-.664-8.128-4.65-7.395-9.864.733-5.213 5.084-8.002 9.813-7.337 4.694.66 7.947 4.661 7.214 9.875-.124.887-.955 1.421-1.732 1.312l-10.624-1.493c-.022 1.95 1.946 3.058 3.676 3.301.988.14 1.845.187 2.968-.378 1.24-.622 2.48-.23 3.071.685zm19.905-7.692l1.233 8.384 3.773-8.15c.437-1.06 1.812-1.627 3.305-.983 1.155.488 1.616 2.072 1.033 3.148l-5.844 11.367c-.593 1.146-1.646 1.722-2.846 1.553l-.212-.03c-1.2-.168-2.018-1.007-2.201-2.262l-1.446-9.173-3.813 8.434c-.558 1.151-1.54 1.736-2.74 1.568l-.212-.03c-1.2-.169-2.018-1.007-2.307-2.277l-2.626-12.558c-.264-1.195.616-2.59 1.86-2.74 1.614-.208 2.78.715 2.907 1.855l1.38 8.874 3.497-7.719c.577-1.293 1.55-1.808 2.785-1.634l.282.04c1.236.173 1.993.93 2.192 2.333z" fill="#1B1B1B" opacity=".949"/></g></svg>